<svg xmlns="http://www.w3.org/2000/svg" viewBox="0 0 100 100" width="100%" height="100%">
    <defs>
        <linearGradient id="m_grad3" x1="0%" y1="0%" x2="100%" y2="100%">
            <stop offset="0%" stop-color="#10B981" />
            <stop offset="100%" stop-color="#047857" />
        </linearGradient>
    </defs>
    <circle cx="50" cy="50" r="50" fill="url(#m_grad3)" />
    <circle cx="50" cy="48" r="21" fill="#FFF1F2" />
    <path d="M29 44 C25 35, 75 35, 71 44 C65 40, 35 40, 29 44 Z" fill="#475569" />
    <circle cx="35" cy="38" r="6" fill="#475569" />
    <circle cx="50" cy="34" r="7" fill="#475569" />
    <circle cx="65" cy="38" r="6" fill="#475569" />
    <circle cx="41" cy="48" r="8" fill="none" stroke="#047857" stroke-width="2.5" />
    <circle cx="59" cy="48" r="8" fill="none" stroke="#047857" stroke-width="2.5" />
    <line x1="49" y1="48" x2="51" y2="48" stroke="#047857" stroke-width="2.5" />
    <path d="M46 58 Q50 63 54 58" fill="none" stroke="#1E293B" stroke-width="2" stroke-linecap="round" />
    <g transform="translate(72, 14) scale(0.18)">
        <path d="M50 0 A30 30 0 0 0 20 30 C20 48 35 55 35 70 H65 C65 55 80 48 80 30 A30 30 0 0 0 50 0 Z" fill="#FBBF24" />
        <rect x="40" y="73" width="20" height="8" rx="2" fill="#94A3B8" />
        <rect x="43" y="83" width="14" height="5" rx="1" fill="#64748B" />
    </g>
    <path d="M35 70 L50 86 L65 70 Z" fill="#FFFFFF" />
</svg>