<svg xmlns="http://www.w3.org/2000/svg" viewBox="0 0 100 100" width="100%" height="100%">
    <defs>
        <linearGradient id="m_grad10" x1="0%" y1="0%" x2="100%" y2="100%">
            <stop offset="0%" stop-color="#4F46E5" />
            <stop offset="100%" stop-color="#312E81" />
        </linearGradient>
    </defs>
    <circle cx="50" cy="50" r="50" fill="url(#m_grad10)" />
    <circle cx="50" cy="48" r="22" fill="#FAF5FF" />
    <path d="M28 44 C28 22, 72 22, 72 44 C65 40, 35 40, 28 44 Z" fill="#312E81" />
    <circle cx="41" cy="48" r="7" fill="none" stroke="#8B5CF6" stroke-width="2" />
    <circle cx="57" cy="48" r="7" fill="none" stroke="#8B5CF6" stroke-width="2" />
    <line x1="48" y1="48" x2="50" y2="48" stroke="#8B5CF6" stroke-width="2" />
    <path d="M45 58 Q50 62 55 58" fill="none" stroke="#312E81" stroke-width="2" stroke-linecap="round" />
    <g transform="translate(10, 18) scale(0.18)">
        <rect x="10" y="20" width="24" height="24" rx="4" fill="#FFFFFF" />
        <path d="M34 26 C38 26, 38 34, 34 34" fill="none" stroke="#FFFFFF" stroke-width="3" />
        <path d="M14 12 Q22 8 30 12" fill="none" stroke="#FBBF24" stroke-width="2" />
    </g>
    <path d="M32 70 C32 70, 30 90, 50 90 C70 90, 68 70, 68 70 Z" fill="#8B5CF6" />
</svg>