<svg xmlns="http://www.w3.org/2000/svg" viewBox="0 0 100 100" width="100%" height="100%">
    <defs>
        <linearGradient id="m_grad6" x1="0%" y1="0%" x2="100%" y2="100%">
            <stop offset="0%" stop-color="#3B82F6" />
            <stop offset="100%" stop-color="#8B5CF6" />
        </linearGradient>
    </defs>
    <circle cx="50" cy="50" r="50" fill="url(#m_grad6)" />
    <circle cx="50" cy="48" r="22" fill="#FFE4E6" />
    <path d="M28 44 C28 26, 72 26, 72 44 C66 40, 34 40, 28 44 Z" fill="#0F172A" />
    <circle cx="41" cy="48" r="7" fill="none" stroke="#1E293B" stroke-width="2" />
    <circle cx="59" cy="48" r="7" fill="none" stroke="#1E293B" stroke-width="2" />
    <line x1="48" y1="48" x2="52" y2="48" stroke="#1E293B" stroke-width="2" />
    <circle cx="41" cy="48" r="1.5" fill="#0F172A" />
    <circle cx="59" cy="48" r="1.5" fill="#0F172A" />
    <path d="M46 59 Q50 62 54 59" fill="none" stroke="#0F172A" stroke-width="2" stroke-linecap="round" />
    <path d="M35 70 C35 70, 38 88, 50 88 C62 88, 65 70, 65 70 Z" fill="#FFFFFF" />
    <polygon points="48,74 52,74 53,88 47,88" fill="#3B82F6" />
</svg>