<svg xmlns="http://www.w3.org/2000/svg" viewBox="0 0 100 100" width="100%" height="100%">
    <defs>
        <linearGradient id="m_grad5" x1="0%" y1="0%" x2="100%" y2="100%">
            <stop offset="0%" stop-color="#F59E0B" />
            <stop offset="100%" stop-color="#D97706" />
        </linearGradient>
    </defs>
    <circle cx="50" cy="50" r="50" fill="url(#m_grad5)" />
    <circle cx="50" cy="50" r="21" fill="#FFEBE9" />
    <path d="M29 48 C29 32, 71 32, 71 48 C68 44, 32 44, 29 48 Z" fill="#78350F" />
    <path d="M29 44 L32 52 L36 45 Z" fill="#78350F" />
    <path d="M71 44 L68 52 L64 45 Z" fill="#78350F" />
    <rect x="35" y="43" width="12" height="8" rx="3" fill="none" stroke="#1E293B" stroke-width="2" />
    <rect x="53" y="43" width="12" height="8" rx="3" fill="none" stroke="#1E293B" stroke-width="2" />
    <line x1="47" y1="47" x2="53" y2="47" stroke="#1E293B" stroke-width="2" />
    <path d="M46 58 Q50 61 54 58" fill="none" stroke="#78350F" stroke-width="2" stroke-linecap="round" />
    <path d="M34 32 L50 22 L66 32 L50 36 Z" fill="#1E293B" />
    <rect x="49" y="32" width="2" height="8" fill="#FBBF24" />
    <g transform="translate(12, 64) scale(0.2)">
        <rect x="0" y="0" width="30" height="40" rx="3" fill="#3B82F6" />
        <rect x="5" y="5" width="20" height="30" fill="#FFFFFF" />
        <line x1="8" y1="12" x2="22" y2="12" stroke="#94A3B8" stroke-width="2" />
        <line x1="8" y1="20" x2="22" y2="20" stroke="#94A3B8" stroke-width="2" />
        <line x1="8" y1="28" x2="16" y2="28" stroke="#94A3B8" stroke-width="2" />
    </g>
    <path d="M35 71 L50 88 L65 71 Z" fill="#FFFFFF" />
</svg>