<svg xmlns="http://www.w3.org/2000/svg" viewBox="0 0 100 100" width="100%" height="100%">
    <defs>
        <linearGradient id="m_grad7" x1="0%" y1="0%" x2="100%" y2="100%">
            <stop offset="0%" stop-color="#06B6D4" />
            <stop offset="100%" stop-color="#0891B2" />
        </linearGradient>
    </defs>
    <circle cx="50" cy="50" r="50" fill="url(#m_grad7)" />
    <circle cx="50" cy="48" r="22" fill="#F0FDFA" />
    <path d="M28 44 C28 24, 72 24, 72 44 C66 40, 34 40, 28 44 Z" fill="#0F172A" />
    <rect x="34" y="43" width="13" height="9" rx="2" fill="rgba(14, 165, 233, 0.1)" stroke="#0EA5E9" stroke-width="2" />
    <rect x="53" y="43" width="13" height="9" rx="2" fill="rgba(14, 165, 233, 0.1)" stroke="#0EA5E9" stroke-width="2" />
    <line x1="47" y1="47.5" x2="53" y2="47.5" stroke="#0EA5E9" stroke-width="2" />
    <circle cx="41" cy="48" r="1.5" fill="#0F172A" />
    <circle cx="59" cy="48" r="1.5" fill="#0F172A" />
    <path d="M46 58 Q50 61 54 58" fill="none" stroke="#0F172A" stroke-width="2" stroke-linecap="round" />
    <g transform="translate(68, 12) scale(0.2)">
        <polygon points="0,15 20,5 40,15 40,35 20,45 0,35" fill="none" stroke="#0EA5E9" stroke-width="3" />
        <line x1="10" y1="20" x2="30" y2="20" stroke="#0EA5E9" stroke-width="2" />
        <line x1="10" y1="27" x2="30" y2="27" stroke="#0EA5E9" stroke-width="2" />
    </g>
    <path d="M32 70 C32 70, 30 90, 50 90 C70 90, 68 70, 68 70 Z" fill="#0EA5E9" />
</svg>