<svg xmlns="http://www.w3.org/2000/svg" viewBox="0 0 100 100" width="100%" height="100%">
    <defs>
        <linearGradient id="f_grad1" x1="0%" y1="0%" x2="100%" y2="100%">
            <stop offset="0%" stop-color="#EC4899" />
            <stop offset="100%" stop-color="#DB2777" />
        </linearGradient>
    </defs>
    <circle cx="50" cy="50" r="50" fill="url(#f_grad1)" />
    <circle cx="50" cy="48" r="22" fill="#FFF1F2" />
    <path d="M28 44 C28 22, 72 22, 72 44 C67 38, 33 38, 28 44 Z" fill="#4C1D95" />
    <path d="M28 44 C25 50, 24 60, 26 65 C28 62, 30 55, 30 48 Z" fill="#4C1D95" />
    <path d="M72 44 C75 50, 76 60, 74 65 C72 62, 70 55, 70 48 Z" fill="#4C1D95" />
    <circle cx="41" cy="48" r="7" fill="none" stroke="#FBBF24" stroke-width="2" />
    <circle cx="57" cy="48" r="7" fill="none" stroke="#FBBF24" stroke-width="2" />
    <line x1="48" y1="48" x2="50" y2="48" stroke="#FBBF24" stroke-width="2" />
    <path d="M46 58 Q50 62 54 58" fill="none" stroke="#4C1D95" stroke-width="2" stroke-linecap="round" />
    <rect x="25" y="42" width="16" height="4" transform="rotate(-30 25 42)" fill="#F59E0B" rx="1" />
    <polygon points="39,34 43,36 39,38" fill="#EF4444" transform="rotate(-30 25 42)" />
    <path d="M34 70 L50 88 L66 70 Z" fill="#FFFFFF" />
</svg>