<svg xmlns="http://www.w3.org/2000/svg" viewBox="0 0 100 100" width="100%" height="100%">
    <defs>
        <linearGradient id="f_grad4" x1="0%" y1="0%" x2="100%" y2="100%">
            <stop offset="0%" stop-color="#C084FC" />
            <stop offset="100%" stop-color="#8B5CF6" />
        </linearGradient>
    </defs>
    <circle cx="50" cy="50" r="50" fill="url(#f_grad4)" />
    <circle cx="50" cy="48" r="22" fill="#FAF5FF" />
    <path d="M28 44 C28 22, 72 22, 72 44 C65 40, 35 40, 28 44 Z" fill="#1E1B4B" />
    <path d="M25 44 C22 50, 21 62, 23 68 C25 65, 27 58, 27 50 Z" fill="#1E1B4B" />
    <path d="M72 44 C75 50, 76 62, 74 68 C72 65, 70 58, 70 50 Z" fill="#1E1B4B" />
    <path d="M25 46 A25 25 0 0 1 75 46" fill="none" stroke="#F472B6" stroke-width="5" />
    <rect x="22" y="40" width="8" height="18" rx="4" fill="#F472B6" />
    <rect x="70" y="40" width="8" height="18" rx="4" fill="#F472B6" />
    <path d="M38 48 Q41 51 44 48" fill="none" stroke="#1E1B4B" stroke-width="2.5" stroke-linecap="round" />
    <path d="M56 48 Q59 51 62 48" fill="none" stroke="#1E1B4B" stroke-width="2.5" stroke-linecap="round" />
    <path d="M45 58 Q50 63 55 58" fill="none" stroke="#1E1B4B" stroke-width="2" stroke-linecap="round" />
    <path d="M32 70 C32 70, 30 90, 50 90 C70 90, 68 70, 68 70 Z" fill="#F472B6" />
</svg>