<svg xmlns="http://www.w3.org/2000/svg" viewBox="0 0 100 100" width="100%" height="100%">
    <defs>
        <linearGradient id="f_grad8" x1="0%" y1="0%" x2="100%" y2="100%">
            <stop offset="0%" stop-color="#34D399" />
            <stop offset="100%" stop-color="#10B981" />
        </linearGradient>
    </defs>
    <circle cx="50" cy="50" r="50" fill="url(#f_grad8)" />
    <path d="M24 60 C22 66, 24 74, 28 78 C29 74, 28 66, 27 60 Z" fill="#78350F" />
    <path d="M76 60 C78 66, 76 74, 72 78 C71 74, 72 66, 73 60 Z" fill="#78350F" />
    <circle cx="50" cy="48" r="22" fill="#FAFDFB" />
    <path d="M28 44 C28 24, 72 24, 72 44 Z" fill="#78350F" />
    <circle cx="41" cy="48" r="7.5" fill="none" stroke="#059669" stroke-width="2" />
    <circle cx="59" cy="48" r="7.5" fill="none" stroke="#059669" stroke-width="2" />
    <line x1="48.5" y1="48" x2="51.5" y2="48" stroke="#059669" stroke-width="2" />
    <path d="M47 58 Q50 61 53 58" fill="none" stroke="#78350F" stroke-width="2" stroke-linecap="round" />
    <path d="M30 70 Q38 82 34 90" fill="none" stroke="#059669" stroke-width="4.5" stroke-linecap="round" />
    <path d="M70 70 Q62 82 66 90" fill="none" stroke="#059669" stroke-width="4.5" stroke-linecap="round" />
    <path d="M35 70 L50 86 L65 70 Z" fill="#FFFFFF" />
</svg>