<svg xmlns="http://www.w3.org/2000/svg" viewBox="0 0 100 100" width="100%" height="100%">
    <defs>
        <linearGradient id="m_grad4" x1="0%" y1="0%" x2="100%" y2="100%">
            <stop offset="0%" stop-color="#8B5CF6" />
            <stop offset="100%" stop-color="#6D28D9" />
        </linearGradient>
    </defs>
    <circle cx="50" cy="50" r="50" fill="url(#m_grad4)" />
    <circle cx="50" cy="48" r="22" fill="#FAF5FF" />
    <path d="M28 45 C28 25, 72 25, 72 45 C65 42, 35 42, 28 45 Z" fill="#1E1B4B" />
    <path d="M25 46 A25 25 0 0 1 75 46" fill="none" stroke="#F472B6" stroke-width="5" />
    <rect x="22" y="40" width="8" height="18" rx="4" fill="#F472B6" />
    <rect x="70" y="40" width="8" height="18" rx="4" fill="#F472B6" />
    <path d="M38 48 Q41 51 44 48" fill="none" stroke="#1E1B4B" stroke-width="2.5" stroke-linecap="round" />
    <path d="M56 48 Q59 51 62 48" fill="none" stroke="#1E1B4B" stroke-width="2.5" stroke-linecap="round" />
    <path d="M45 58 Q50 63 55 58" fill="none" stroke="#1E1B4B" stroke-width="2" stroke-linecap="round" />
    <path d="M32 70 C32 70, 30 90, 50 90 C70 90, 68 70, 68 70 Z" fill="#F472B6" />
    <circle cx="50" cy="78" r="4" fill="#FFFFFF" />
</svg>